<svg version="1.1" viewBox="0.0 0.0 960.0 240.0" fill="none" stroke="none" stroke-linecap="square" stroke-miterlimit="10" xmlns:xlink="http://www.w3.org/1999/xlink" xmlns="http://www.w3.org/2000/svg"><clipPath id="p.0"><path d="m0 0l960.0 0l0 720.0l-960.0 0l0 -720.0z" clip-rule="nonzero"/></clipPath><g clip-path="url(#p.0)"><path fill="#000000" fill-opacity="0.0" d="m0 0l960.0 0l0 720.0l-960.0 0z" fill-rule="evenodd"/><path fill="#cfe2f3" d="m96.0 63.46194l112.0 0l0 32.000004l-112.0 0z" fill-rule="evenodd"/><path stroke="#000000" stroke-width="1.0" stroke-linejoin="round" stroke-linecap="butt" d="m96.0 63.46194l112.0 0l0 32.000004l-112.0 0z" fill-rule="evenodd"/><path fill="#000000" d="m133.17209 86.38194l0 -13.359375l2.65625 0l3.15625 9.453125q0.4375 1.328125 0.640625 1.984375q0.234375 -0.734375 0.703125 -2.140625l3.203125 -9.296875l2.375 0l0 13.359375l-1.703125 0l0 -11.171875l-3.875 11.171875l-1.59375 0l-3.859375 -11.375l0 11.375l-1.703125 0zm21.697052 -1.1875q-0.921875 0.765625 -1.765625 1.09375q-0.828125 0.3125 -1.796875 0.3125q-1.59375 0 -2.453125 -0.78125q-0.859375 -0.78125 -0.859375 -1.984375q0 -0.71875 0.328125 -1.296875q0.328125 -0.59375 0.84375 -0.9375q0.53125 -0.359375 1.1875 -0.546875q0.46875 -0.125 1.453125 -0.25q1.984375 -0.234375 2.921875 -0.5625q0.015625 -0.34375 0.015625 -0.421875q0 -1.0 -0.46875 -1.421875q-0.625 -0.546875 -1.875 -0.546875q-1.15625 0 -1.703125 0.40625q-0.546875 0.40625 -0.8125 1.421875l-1.609375 -0.21875q0.21875 -1.015625 0.71875 -1.640625q0.5 -0.640625 1.453125 -0.984375q0.953125 -0.34375 2.1875 -0.34375q1.25 0 2.015625 0.296875q0.78125 0.28125 1.140625 0.734375q0.375 0.4375 0.515625 1.109375q0.078125 0.421875 0.078125 1.515625l0 2.1875q0 2.28125 0.109375 2.890625q0.109375 0.59375 0.40625 1.15625l-1.703125 0q-0.265625 -0.515625 -0.328125 -1.1875zm-0.140625 -3.671875q-0.890625 0.375 -2.671875 0.625q-1.015625 0.140625 -1.4375 0.328125q-0.421875 0.1875 -0.65625 0.53125q-0.21875 0.34375 -0.21875 0.78125q0 0.65625 0.5 1.09375q0.5 0.4375 1.453125 0.4375q0.9375 0 1.671875 -0.40625q0.75 -0.421875 1.09375 -1.140625q0.265625 -0.5625 0.265625 -1.640625l0 -0.609375zm4.2038574 -6.609375l0 -1.890625l1.640625 0l0 1.890625l-1.640625 0zm0 11.46875l0 -9.671875l1.640625 0l0 9.671875l-1.640625 0zm4.144806 0l0 -9.671875l1.46875 0l0 1.375q1.0625 -1.59375 3.078125 -1.59375q0.875 0 1.609375 0.3125q0.734375 0.3125 1.09375 0.828125q0.375 0.5 0.515625 1.203125q0.09375 0.453125 0.09375 1.59375l0 5.953125l-1.640625 0l0 -5.890625q0 -1.0 -0.203125 -1.484375q-0.1875 -0.5 -0.671875 -0.796875q-0.484375 -0.296875 -1.140625 -0.296875q-1.046875 0 -1.8125 0.671875q-0.75 0.65625 -0.75 2.515625l0 5.28125l-1.640625 0z" fill-rule="nonzero"/><path fill="#000000" fill-opacity="0.0" d="m208.0 79.461945l211.81104 0" fill-rule="evenodd"/><path stroke="#1155cc" stroke-width="4.0" stroke-linejoin="round" stroke-linecap="butt" d="m208.0 79.461945l211.81104 0" fill-rule="evenodd"/><path fill="#000000" fill-opacity="0.0" d="m427.81497 87.461945l0 68.50394" fill-rule="evenodd"/><path stroke="#6d9eeb" stroke-width="4.0" stroke-linejoin="round" stroke-linecap="butt" d="m427.81497 87.461945l0 44.503937" fill-rule="evenodd"/><path fill="#6d9eeb" stroke="#6d9eeb" stroke-width="4.0" stroke-linecap="butt" d="m421.20804 131.96588l6.6069336 18.15239l6.6069336 -18.15239z" fill-rule="evenodd"/><path fill="#cfe2f3" d="m232.0 144.0l112.0 0l0 40.0l-112.0 0z" fill-rule="evenodd"/><path stroke="#000000" stroke-width="1.0" stroke-linejoin="round" stroke-linecap="butt" d="m232.0 144.0l112.0 0l0 40.0l-112.0 0z" fill-rule="evenodd"/><path fill="#000000" d="m256.69177 166.62312l1.65625 -0.140625q0.125 1.0 0.546875 1.640625q0.4375 0.640625 1.34375 1.046875q0.921875 0.390625 2.0625 0.390625q1.0 0 1.78125 -0.296875q0.78125 -0.296875 1.15625 -0.8125q0.375 -0.53125 0.375 -1.15625q0 -0.625 -0.375 -1.09375q-0.359375 -0.46875 -1.1875 -0.796875q-0.546875 -0.203125 -2.390625 -0.640625q-1.828125 -0.453125 -2.5625 -0.84375q-0.96875 -0.5 -1.4375 -1.234375q-0.46875 -0.75 -0.46875 -1.671875q0 -1.0 0.578125 -1.875q0.578125 -0.890625 1.671875 -1.34375q1.109375 -0.453125 2.453125 -0.453125q1.484375 0 2.609375 0.484375q1.140625 0.46875 1.75 1.40625q0.609375 0.921875 0.65625 2.09375l-1.6875 0.125q-0.140625 -1.265625 -0.9375 -1.90625q-0.78125 -0.65625 -2.3125 -0.65625q-1.609375 0 -2.34375 0.59375q-0.734375 0.59375 -0.734375 1.421875q0 0.71875 0.53125 1.171875q0.5 0.46875 2.65625 0.96875q2.15625 0.484375 2.953125 0.84375q1.171875 0.53125 1.71875 1.359375q0.5625 0.828125 0.5625 1.90625q0 1.0625 -0.609375 2.015625q-0.609375 0.9375 -1.75 1.46875q-1.140625 0.515625 -2.578125 0.515625q-1.8125 0 -3.046875 -0.53125q-1.21875 -0.53125 -1.921875 -1.59375q-0.6875 -1.0625 -0.71875 -2.40625zm12.787323 4.296875l0 -13.359375l1.640625 0l0 13.359375l-1.640625 0zm10.816711 -3.109375l1.6875 0.203125q-0.40625 1.484375 -1.484375 2.3125q-1.078125 0.8125 -2.765625 0.8125q-2.125 0 -3.375 -1.296875q-1.234375 -1.3125 -1.234375 -3.671875q0 -2.453125 1.25 -3.796875q1.265625 -1.34375 3.265625 -1.34375q1.9375 0 3.15625 1.328125q1.234375 1.3125 1.234375 3.703125q0 0.15625 0 0.4375l-7.21875 0q0.09375 1.59375 0.90625 2.453125q0.8125 0.84375 2.015625 0.84375q0.90625 0 1.546875 -0.46875q0.640625 -0.484375 1.015625 -1.515625zm-5.390625 -2.65625l5.40625 0q-0.109375 -1.21875 -0.625 -1.828125q-0.78125 -0.953125 -2.03125 -0.953125q-1.125 0 -1.90625 0.765625q-0.765625 0.75 -0.84375 2.015625zm15.766327 2.65625l1.6875 0.203125q-0.40625 1.484375 -1.484375 2.3125q-1.078125 0.8125 -2.765625 0.8125q-2.125 0 -3.375 -1.296875q-1.234375 -1.3125 -1.234375 -3.671875q0 -2.453125 1.25 -3.796875q1.265625 -1.34375 3.265625 -1.34375q1.9375 0 3.15625 1.328125q1.234375 1.3125 1.234375 3.703125q0 0.15625 0 0.4375l-7.21875 0q0.09375 1.59375 0.90625 2.453125q0.8125 0.84375 2.015625 0.84375q0.90625 0 1.546875 -0.46875q0.640625 -0.484375 1.015625 -1.515625zm-5.390625 -2.65625l5.40625 0q-0.109375 -1.21875 -0.625 -1.828125q-0.78125 -0.953125 -2.03125 -0.953125q-1.125 0 -1.90625 0.765625q-0.765625 0.75 -0.84375 2.015625zm9.141357 9.46875l0 -13.375l1.484375 0l0 1.25q0.53125 -0.734375 1.1875 -1.09375q0.671875 -0.375 1.625 -0.375q1.234375 0 2.171875 0.640625q0.953125 0.625 1.4375 1.796875q0.484375 1.15625 0.484375 2.546875q0 1.484375 -0.53125 2.671875q-0.53125 1.1875 -1.546875 1.828125q-1.015625 0.625 -2.140625 0.625q-0.8125 0 -1.46875 -0.34375q-0.65625 -0.34375 -1.0625 -0.875l0 4.703125l-1.640625 0zm1.484375 -8.484375q0 1.859375 0.75 2.765625q0.765625 0.890625 1.828125 0.890625q1.09375 0 1.875 -0.921875q0.78125 -0.9375 0.78125 -2.875q0 -1.84375 -0.765625 -2.765625q-0.75 -0.921875 -1.8125 -0.921875q-1.046875 0 -1.859375 0.984375q-0.796875 0.96875 -0.796875 2.84375zm15.516327 1.671875l1.6875 0.203125q-0.40625 1.484375 -1.484375 2.3125q-1.078125 0.8125 -2.765625 0.8125q-2.125 0 -3.375 -1.296875q-1.234375 -1.3125 -1.234375 -3.671875q0 -2.453125 1.25 -3.796875q1.265625 -1.34375 3.265625 -1.34375q1.9375 0 3.15625 1.328125q1.234375 1.3125 1.234375 3.703125q0 0.15625 0 0.4375l-7.21875 0q0.09375 1.59375 0.90625 2.453125q0.8125 0.84375 2.015625 0.84375q0.90625 0 1.546875 -0.46875q0.640625 -0.484375 1.015625 -1.515625zm-5.390625 -2.65625l5.40625 0q-0.109375 -1.21875 -0.625 -1.828125q-0.78125 -0.953125 -2.03125 -0.953125q-1.125 0 -1.90625 0.765625q-0.765625 0.75 -0.84375 2.015625zm9.125732 5.765625l0 -9.671875l1.46875 0l0 1.46875q0.5625 -1.03125 1.03125 -1.359375q0.484375 -0.328125 1.0625 -0.328125q0.828125 0 1.6875 0.53125l-0.5625 1.515625q-0.609375 -0.359375 -1.203125 -0.359375q-0.546875 0 -0.96875 0.328125q-0.421875 0.328125 -0.609375 0.890625q-0.28125 0.875 -0.28125 1.921875l0 5.0625l-1.625 0z" fill-rule="nonzero"/><path fill="#f3f3f3" d="m232.0 24.0l112.66141 0l0 40.0l-112.66141 0z" fill-rule="evenodd"/><path stroke="#b7b7b7" stroke-width="1.0" stroke-linejoin="round" stroke-linecap="butt" d="m232.0 24.0l112.66141 0l0 40.0l-112.66141 0z" fill-rule="evenodd"/><path fill="#000000" d="m260.61197 46.219376q0 0.40625 -0.140625 0.734375q-0.140625 0.328125 -0.390625 0.59375q-0.234375 0.25 -0.5625 0.4375q-0.3125 0.171875 -0.6875 0.296875q-0.359375 0.109375 -0.75 0.15625q-0.375 0.0625 -0.734375 0.0625q-0.796875 0 -1.4687653 -0.078125q-0.671875 -0.0625 -1.3125 -0.21875l0 -1.25q0.6875 0.1875 1.359375 0.296875q0.68751526 0.09375 1.3593903 0.09375q0.984375 0 1.453125 -0.265625q0.46875 -0.265625 0.46875 -0.75q0 -0.21875 -0.078125 -0.375q-0.078125 -0.171875 -0.28125 -0.328125q-0.1875 -0.15625 -0.59375 -0.3125q-0.40625 -0.171875 -1.125 -0.375q-0.53125 -0.15625 -0.984375 -0.359375q-0.43751526 -0.203125 -0.76564026 -0.46875q-0.328125 -0.28125 -0.515625 -0.640625q-0.1875 -0.375 -0.1875 -0.875q0 -0.328125 0.140625 -0.71875q0.15625 -0.390625 0.515625 -0.71875q0.375 -0.34375 1.0000153 -0.5625q0.625 -0.21875 1.5625 -0.21875q0.46875 0 1.03125 0.046875q0.5625 0.046875 1.171875 0.171875l0 1.21875q-0.640625 -0.15625 -1.21875 -0.234375q-0.578125 -0.078125 -1.0 -0.078125q-0.5 0 -0.859375 0.078125q-0.34375 0.078125 -0.5625 0.21875q-0.203125 0.140625 -0.296875 0.328125q-0.09375 0.171875 -0.09375 0.390625q0 0.203125 0.078125 0.375q0.078125 0.171875 0.296875 0.34375q0.234375 0.15625 0.625 0.3125q0.40625 0.15625 1.046875 0.34375q0.6875 0.203125 1.15625 0.4375q0.484375 0.21875 0.78125 0.5q0.296875 0.265625 0.421875 0.609375q0.140625 0.34375 0.140625 0.78125zm9.28125 -1.921875q0 1.046875 -0.296875 1.828125q-0.28125 0.78125 -0.796875 1.296875q-0.515625 0.515625 -1.21875 0.78125q-0.703125 0.25 -1.53125 0.25q-0.375 0 -0.75 -0.046875q-0.359375 -0.03125 -0.75 -0.125l0 3.28125l-1.359375 0l0 -11.046875l1.21875 0l0.078125 1.3125q0.59375 -0.8125 1.25 -1.125q0.671875 -0.328125 1.4375 -0.328125q0.671875 0 1.171875 0.28125q0.515625 0.28125 0.859375 0.796875q0.34375 0.5 0.515625 1.234375q0.171875 0.71875 0.171875 1.609375zm-1.390625 0.0625q0 -0.625 -0.09375 -1.140625q-0.078125 -0.515625 -0.28125 -0.875q-0.1875 -0.375 -0.5 -0.578125q-0.296875 -0.203125 -0.71875 -0.203125q-0.265625 0 -0.53125 0.078125q-0.265625 0.078125 -0.546875 0.28125q-0.28125 0.1875 -0.609375 0.5q-0.3125 0.3125 -0.671875 0.78125l0 3.8125q0.375 0.15625 0.78125 0.25q0.421875 0.078125 0.828125 0.078125q1.09375 0 1.71875 -0.734375q0.625 -0.75 0.625 -2.25zm6.15625 -2.71875l-2.3125 0l0 -1.125l3.6875 0l0 6.703125l2.34375 0l0 1.140625l-6.296875 0l0 -1.140625l2.578125 0l0 -5.578125zm0.484375 -4.421875q0.21875 0 0.40625 0.09375q0.203125 0.078125 0.34375 0.234375q0.15625 0.140625 0.234375 0.328125q0.078125 0.1875 0.078125 0.421875q0 0.21875 -0.078125 0.421875q-0.078125 0.1875 -0.234375 0.34375q-0.140625 0.140625 -0.34375 0.21875q-0.1875 0.078125 -0.40625 0.078125q-0.234375 0 -0.4375 -0.078125q-0.1875 -0.078125 -0.328125 -0.21875q-0.140625 -0.15625 -0.234375 -0.34375q-0.078125 -0.203125 -0.078125 -0.421875q0 -0.234375 0.078125 -0.421875q0.09375 -0.1875 0.234375 -0.328125q0.140625 -0.15625 0.328125 -0.234375q0.203125 -0.09375 0.4375 -0.09375zm5.640625 3.296875l1.21875 0l0.046875 1.265625q0.34375 -0.40625 0.65625 -0.671875q0.328125 -0.28125 0.640625 -0.4375q0.3125 -0.171875 0.625 -0.234375q0.328125 -0.0625 0.671875 -0.0625q1.203125 0 1.828125 0.71875q0.625 0.703125 0.625 2.140625l0 5.125l-1.359375 0l0 -5.015625q0 -0.921875 -0.34375 -1.359375q-0.34375 -0.4375 -1.03125 -0.4375q-0.25 0 -0.484375 0.078125q-0.234375 0.0625 -0.5 0.25q-0.25 0.1875 -0.5625 0.5q-0.296875 0.3125 -0.671875 0.78125l0 5.203125l-1.359375 0l0 -7.84375zm20.68747 5.375q0.265625 0 0.5 0.109375q0.234375 0.09375 0.40625 0.28125q0.1875 0.171875 0.28125 0.421875q0.109375 0.234375 0.109375 0.5q0 0.265625 -0.109375 0.5q-0.09375 0.234375 -0.28125 0.421875q-0.171875 0.171875 -0.40625 0.265625q-0.234375 0.109375 -0.5 0.109375q-0.28125 0 -0.515625 -0.109375q-0.234375 -0.09375 -0.40625 -0.265625q-0.171875 -0.1875 -0.28125 -0.421875q-0.09375 -0.234375 -0.09375 -0.5q0 -0.265625 0.09375 -0.5q0.109375 -0.25 0.28125 -0.421875q0.171875 -0.1875 0.40625 -0.28125q0.234375 -0.109375 0.515625 -0.109375zm8.796875 0q0.265625 0 0.5 0.109375q0.234375 0.09375 0.40625 0.28125q0.1875 0.171875 0.28125 0.421875q0.109375 0.234375 0.109375 0.5q0 0.265625 -0.109375 0.5q-0.09375 0.234375 -0.28125 0.421875q-0.171875 0.171875 -0.40625 0.265625q-0.234375 0.109375 -0.5 0.109375q-0.28125 0 -0.515625 -0.109375q-0.234375 -0.09375 -0.40625 -0.265625q-0.171875 -0.1875 -0.28125 -0.421875q-0.09375 -0.234375 -0.09375 -0.5q0 -0.265625 0.09375 -0.5q0.109375 -0.25 0.28125 -0.421875q0.171875 -0.1875 0.40625 -0.28125q0.234375 -0.109375 0.515625 -0.109375zm8.796875 0q0.265625 0 0.5 0.109375q0.234375 0.09375 0.40625 0.28125q0.1875 0.171875 0.28125 0.421875q0.109375 0.234375 0.109375 0.5q0 0.265625 -0.109375 0.5q-0.09375 0.234375 -0.28125 0.421875q-0.171875 0.171875 -0.40625 0.265625q-0.234375 0.109375 -0.5 0.109375q-0.28125 0 -0.515625 -0.109375q-0.234375 -0.09375 -0.40625 -0.265625q-0.171875 -0.1875 -0.28125 -0.421875q-0.09375 -0.234375 -0.09375 -0.5q0 -0.265625 0.09375 -0.5q0.109375 -0.25 0.28125 -0.421875q0.171875 -0.1875 0.40625 -0.28125q0.234375 -0.109375 0.515625 -0.109375z" fill-rule="nonzero"/><path fill="#1155cc" d="m419.81497 79.461945l0 0c0 -4.4182816 3.5816956 -8.0 8.0 -8.0l0 0c2.1217346 0 4.156555 0.84284973 5.65683 2.3431396c1.5003052 1.5002975 2.3431702 3.5351257 2.3431702 5.6568604l0 0c0 4.418274 -3.581726 8.0 -8.0 8.0l0 0c-4.4183044 0 -8.0 -3.581726 -8.0 -8.0z" fill-rule="evenodd"/><path fill="#f3f3f3" d="m376.0 24.0l103.52756 0l0 40.0l-103.52756 0z" fill-rule="evenodd"/><path stroke="#b7b7b7" stroke-width="1.0" stroke-linejoin="round" stroke-linecap="butt" d="m376.0 24.0l103.52756 0l0 40.0l-103.52756 0z" fill-rule="evenodd"/><path fill="#000000" d="m404.44348 46.219376q0 0.40625 -0.140625 0.734375q-0.140625 0.328125 -0.390625 0.59375q-0.234375 0.25 -0.5625 0.4375q-0.3125 0.171875 -0.6875 0.296875q-0.359375 0.109375 -0.75 0.15625q-0.375 0.0625 -0.734375 0.0625q-0.796875 0 -1.46875 -0.078125q-0.671875 -0.0625 -1.3125 -0.21875l0 -1.25q0.6875 0.1875 1.359375 0.296875q0.6875 0.09375 1.359375 0.09375q0.984375 0 1.453125 -0.265625q0.46875 -0.265625 0.46875 -0.75q0 -0.21875 -0.078125 -0.375q-0.078125 -0.171875 -0.28125 -0.328125q-0.1875 -0.15625 -0.59375 -0.3125q-0.40625 -0.171875 -1.125 -0.375q-0.53125 -0.15625 -0.984375 -0.359375q-0.4375 -0.203125 -0.765625 -0.46875q-0.328125 -0.28125 -0.515625 -0.640625q-0.1875 -0.375 -0.1875 -0.875q0 -0.328125 0.140625 -0.71875q0.15625 -0.390625 0.515625 -0.71875q0.375 -0.34375 1.0 -0.5625q0.625 -0.21875 1.5625 -0.21875q0.46875 0 1.03125 0.046875q0.5625 0.046875 1.171875 0.171875l0 1.21875q-0.640625 -0.15625 -1.21875 -0.234375q-0.578125 -0.078125 -1.0 -0.078125q-0.5 0 -0.859375 0.078125q-0.34375 0.078125 -0.5625 0.21875q-0.203125 0.140625 -0.296875 0.328125q-0.09375 0.171875 -0.09375 0.390625q0 0.203125 0.078125 0.375q0.078125 0.171875 0.296875 0.34375q0.234375 0.15625 0.625 0.3125q0.40625 0.15625 1.046875 0.34375q0.6875 0.203125 1.15625 0.4375q0.484375 0.21875 0.78125 0.5q0.296875 0.265625 0.421875 0.609375q0.140625 0.34375 0.140625 0.78125zm8.890625 2.140625l-1.21875 0l-0.046875 -1.265625q-0.359375 0.40625 -0.671875 0.671875q-0.3125 0.265625 -0.625 0.4375q-0.3125 0.171875 -0.640625 0.234375q-0.3125 0.0625 -0.65625 0.0625q-1.21875 0 -1.84375 -0.703125q-0.609375 -0.71875 -0.609375 -2.15625l0 -5.125l1.359375 0l0 5.015625q0 1.796875 1.359375 1.796875q0.25 0 0.484375 -0.0625q0.25 -0.078125 0.5 -0.265625q0.265625 -0.1875 0.5625 -0.5q0.3125 -0.3125 0.6875 -0.78125l0 -5.203125l1.359375 0l0 7.84375zm8.703125 -2.140625q0 0.40625 -0.140625 0.734375q-0.140625 0.328125 -0.390625 0.59375q-0.234375 0.25 -0.5625 0.4375q-0.3125 0.171875 -0.6875 0.296875q-0.359375 0.109375 -0.75 0.15625q-0.375 0.0625 -0.734375 0.0625q-0.796875 0 -1.46875 -0.078125q-0.671875 -0.0625 -1.3125 -0.21875l0 -1.25q0.6875 0.1875 1.359375 0.296875q0.6875 0.09375 1.359375 0.09375q0.984375 0 1.453125 -0.265625q0.46875 -0.265625 0.46875 -0.75q0 -0.21875 -0.078125 -0.375q-0.078125 -0.171875 -0.28125 -0.328125q-0.1875 -0.15625 -0.59375 -0.3125q-0.40625 -0.171875 -1.125 -0.375q-0.53125 -0.15625 -0.984375 -0.359375q-0.4375 -0.203125 -0.765625 -0.46875q-0.328125 -0.28125 -0.515625 -0.640625q-0.1875 -0.375 -0.1875 -0.875q0 -0.328125 0.140625 -0.71875q0.15625 -0.390625 0.515625 -0.71875q0.375 -0.34375 1.0 -0.5625q0.625 -0.21875 1.5625 -0.21875q0.46875 0 1.03125 0.046875q0.5625 0.046875 1.171875 0.171875l0 1.21875q-0.640625 -0.15625 -1.21875 -0.234375q-0.578125 -0.078125 -1.0 -0.078125q-0.5 0 -0.859375 0.078125q-0.34375 0.078125 -0.5625 0.21875q-0.203125 0.140625 -0.296875 0.328125q-0.09375 0.171875 -0.09375 0.390625q0 0.203125 0.078125 0.375q0.078125 0.171875 0.296875 0.34375q0.234375 0.15625 0.625 0.3125q0.40625 0.15625 1.046875 0.34375q0.6875 0.203125 1.15625 0.4375q0.484375 0.21875 0.78125 0.5q0.296875 0.265625 0.421875 0.609375q0.140625 0.34375 0.140625 0.78125zm9.28125 -1.921875q0 1.046875 -0.296875 1.828125q-0.28125 0.78125 -0.796875 1.296875q-0.515625 0.515625 -1.21875 0.78125q-0.703125 0.25 -1.53125 0.25q-0.375 0 -0.75 -0.046875q-0.359375 -0.03125 -0.75 -0.125l0 3.28125l-1.359375 0l0 -11.046875l1.21875 0l0.078125 1.3125q0.59375 -0.8125 1.25 -1.125q0.671875 -0.328125 1.4375 -0.328125q0.671875 0 1.171875 0.28125q0.515625 0.28125 0.859375 0.796875q0.34375 0.5 0.515625 1.234375q0.171875 0.71875 0.171875 1.609375zm-1.390625 0.0625q0 -0.625 -0.09375 -1.140625q-0.078125 -0.515625 -0.28125 -0.875q-0.1875 -0.375 -0.5 -0.578125q-0.296875 -0.203125 -0.71875 -0.203125q-0.265625 0 -0.53125 0.078125q-0.265625 0.078125 -0.546875 0.28125q-0.28125 0.1875 -0.609375 0.5q-0.3125 0.3125 -0.671875 0.78125l0 3.8125q0.375 0.15625 0.78125 0.25q0.421875 0.078125 0.828125 0.078125q1.09375 0 1.71875 -0.734375q0.625 -0.75 0.625 -2.25zm10.109375 -0.34375q0 0.296875 -0.015625 0.5q0 0.1875 -0.015625 0.359375l-5.5 0q0 1.203125 0.671875 1.84375q0.671875 0.640625 1.9375 0.640625q0.34375 0 0.6875 -0.015625q0.34375 -0.03125 0.65625 -0.078125q0.328125 -0.046875 0.609375 -0.109375q0.296875 -0.0625 0.546875 -0.125l0 1.109375q-0.546875 0.15625 -1.25 0.25q-0.703125 0.109375 -1.453125 0.109375q-1.0 0 -1.734375 -0.265625q-0.71875 -0.28125 -1.1875 -0.796875q-0.46875 -0.53125 -0.6875 -1.28125q-0.21875 -0.75 -0.21875 -1.703125q0 -0.828125 0.234375 -1.5625q0.234375 -0.75 0.6875 -1.296875q0.46875 -0.5625 1.125 -0.890625q0.671875 -0.328125 1.515625 -0.328125q0.8125 0 1.4375 0.265625q0.640625 0.25 1.078125 0.71875q0.4375 0.46875 0.65625 1.15625q0.21875 0.671875 0.21875 1.5zm-1.40625 -0.1875q0.015625 -0.53125 -0.109375 -0.953125q-0.125 -0.4375 -0.390625 -0.75q-0.25 -0.3125 -0.640625 -0.484375q-0.390625 -0.1875 -0.90625 -0.1875q-0.453125 0 -0.828125 0.171875q-0.359375 0.171875 -0.625 0.484375q-0.265625 0.3125 -0.4375 0.75q-0.15625 0.4375 -0.1875 0.96875l4.125 0zm3.578125 -3.3125l1.21875 0l0.046875 1.265625q0.34375 -0.40625 0.65625 -0.671875q0.328125 -0.28125 0.640625 -0.4375q0.3125 -0.171875 0.625 -0.234375q0.328125 -0.0625 0.671875 -0.0625q1.203125 0 1.828125 0.71875q0.625 0.703125 0.625 2.140625l0 5.125l-1.359375 0l0 -5.015625q0 -0.921875 -0.34375 -1.359375q-0.34375 -0.4375 -1.03125 -0.4375q-0.25 0 -0.484375 0.078125q-0.234375 0.0625 -0.5 0.25q-0.25 0.1875 -0.5625 0.5q-0.296875 0.3125 -0.671875 0.78125l0 5.203125l-1.359375 0l0 -7.84375zm8.40625 4.078125q0 -1.0 0.265625 -1.765625q0.28125 -0.78125 0.78125 -1.3125q0.5 -0.546875 1.203125 -0.8125q0.71875 -0.28125 1.578125 -0.28125q0.375 0 0.734375 0.046875q0.375 0.046875 0.71875 0.140625l0 -3.296875l1.375 0l0 11.046875l-1.21875 0l-0.046875 -1.484375q-0.578125 0.828125 -1.25 1.234375q-0.65625 0.390625 -1.421875 0.390625q-0.671875 0 -1.1875 -0.28125q-0.515625 -0.28125 -0.859375 -0.796875q-0.328125 -0.515625 -0.5 -1.234375q-0.171875 -0.71875 -0.171875 -1.59375zm1.390625 -0.078125q0 1.421875 0.40625 2.125q0.421875 0.6875 1.1875 0.6875q0.515625 0 1.09375 -0.453125q0.578125 -0.46875 1.203125 -1.375l0 -3.640625q-0.328125 -0.15625 -0.734375 -0.234375q-0.40625 -0.078125 -0.8125 -0.078125q-1.109375 0 -1.734375 0.71875q-0.609375 0.71875 -0.609375 2.25z" fill-rule="nonzero"/><path fill="#000000" fill-opacity="0.0" d="m344.0 164.0l75.811035 -0.03149414" fill-rule="evenodd"/><path stroke="#a4c2f4" stroke-width="4.0" stroke-linejoin="round" stroke-linecap="butt" d="m344.0 164.0l75.811035 -0.03149414" fill-rule="evenodd"/><path fill="#a4c2f4" d="m419.81497 163.96194l0 0c0 -4.418274 3.5816956 -8.0 8.0 -8.0l0 0c2.1217346 0 4.156555 0.84284973 5.65683 2.3431396c1.5003052 1.5002899 2.3431702 3.5351257 2.3431702 5.6568604l0 0c0 4.418274 -3.581726 8.0 -8.0 8.0l0 0c-4.4183044 0 -8.0 -3.581726 -8.0 -8.0z" fill-rule="evenodd"/><path fill="#000000" fill-opacity="0.0" d="m435.81497 163.96194l56.503937 0" fill-rule="evenodd"/><path stroke="#1155cc" stroke-width="4.0" stroke-linejoin="round" stroke-linecap="butt" d="m435.81497 163.96194l56.503937 0" fill-rule="evenodd"/><path fill="#f3f3f3" d="m462.96063 104.0l81.03937 0l0 40.0l-81.03937 0z" fill-rule="evenodd"/><path stroke="#b7b7b7" stroke-width="1.0" stroke-linejoin="round" stroke-linecap="butt" d="m462.96063 104.0l81.03937 0l0 40.0l-81.03937 0z" fill-rule="evenodd"/><path fill="#000000" d="m480.16 126.219376q0 0.40625 -0.140625 0.734375q-0.140625 0.328125 -0.390625 0.59375q-0.234375 0.25 -0.5625 0.4375q-0.3125 0.171875 -0.6875 0.296875q-0.359375 0.109375 -0.75 0.15625q-0.375 0.0625 -0.734375 0.0625q-0.796875 0 -1.46875 -0.078125q-0.671875 -0.0625 -1.3125 -0.21875l0 -1.25q0.6875 0.1875 1.359375 0.296875q0.6875 0.09375 1.359375 0.09375q0.984375 0 1.453125 -0.265625q0.46875 -0.265625 0.46875 -0.75q0 -0.21875 -0.078125 -0.375q-0.078125 -0.171875 -0.28125 -0.328125q-0.1875 -0.15625 -0.59375 -0.3125q-0.40625 -0.171875 -1.125 -0.375q-0.53125 -0.15625 -0.984375 -0.359375q-0.4375 -0.203125 -0.765625 -0.46875q-0.328125 -0.28125 -0.515625 -0.640625q-0.1875 -0.375 -0.1875 -0.875q0 -0.328125 0.140625 -0.71875q0.15625 -0.390625 0.515625 -0.71875q0.375 -0.34375 1.0 -0.5625q0.625 -0.21875 1.5625 -0.21875q0.46875 0 1.03125 0.046875q0.5625 0.046875 1.171875 0.171875l0 1.21875q-0.640625 -0.15625 -1.21875 -0.234375q-0.578125 -0.078125 -1.0 -0.078125q-0.5 0 -0.859375 0.078125q-0.34375 0.078125 -0.5625 0.21875q-0.203125 0.140625 -0.296875 0.328125q-0.09375 0.171875 -0.09375 0.390625q0 0.203125 0.078125 0.375q0.078125 0.171875 0.296875 0.34375q0.234375 0.15625 0.625 0.3125q0.40625 0.15625 1.046875 0.34375q0.6875 0.203125 1.15625 0.4375q0.484375 0.21875 0.78125 0.5q0.296875 0.265625 0.421875 0.609375q0.140625 0.34375 0.140625 0.78125zm5.25 -7.78125l-2.3125 0l0 -1.125l3.6875 0l0 9.90625l2.34375 0l0 1.140625l-6.296875 0l0 -1.140625l2.578125 0l0 -8.78125zm12.75 5.578125q0 0.296875 -0.015625 0.5q0 0.1875 -0.015625 0.359375l-5.5 0q0 1.203125 0.671875 1.84375q0.671875 0.640625 1.9375 0.640625q0.34375 0 0.6875 -0.015625q0.34375 -0.03125 0.65625 -0.078125q0.328125 -0.046875 0.609375 -0.109375q0.296875 -0.0625 0.546875 -0.125l0 1.109375q-0.546875 0.15625 -1.25 0.25q-0.703125 0.109375 -1.453125 0.109375q-1.0 0 -1.734375 -0.265625q-0.71875 -0.28125 -1.1875 -0.796875q-0.46875 -0.53125 -0.6875 -1.28125q-0.21875 -0.75 -0.21875 -1.703125q0 -0.828125 0.234375 -1.5625q0.234375 -0.75 0.6875 -1.296875q0.46875 -0.5625 1.125 -0.890625q0.671875 -0.328125 1.515625 -0.328125q0.8125 0 1.4375 0.265625q0.640625 0.25 1.078125 0.71875q0.4375 0.46875 0.65625 1.15625q0.21875 0.671875 0.21875 1.5zm-1.40625 -0.1875q0.015625 -0.53125 -0.109375 -0.953125q-0.125 -0.4375 -0.390625 -0.75q-0.25 -0.3125 -0.640625 -0.484375q-0.390625 -0.1875 -0.90625 -0.1875q-0.453125 0 -0.828125 0.171875q-0.359375 0.171875 -0.625 0.484375q-0.265625 0.3125 -0.4375 0.75q-0.15625 0.4375 -0.1875 0.96875l4.125 0zm10.203125 0.1875q0 0.296875 -0.015625 0.5q0 0.1875 -0.015625 0.359375l-5.5 0q0 1.203125 0.671875 1.84375q0.671875 0.640625 1.9375 0.640625q0.34375 0 0.6875 -0.015625q0.34375 -0.03125 0.65625 -0.078125q0.328125 -0.046875 0.609375 -0.109375q0.296875 -0.0625 0.546875 -0.125l0 1.109375q-0.546875 0.15625 -1.25 0.25q-0.703125 0.109375 -1.453125 0.109375q-1.0 0 -1.734375 -0.265625q-0.71875 -0.28125 -1.1875 -0.796875q-0.46875 -0.53125 -0.6875 -1.28125q-0.21875 -0.75 -0.21875 -1.703125q0 -0.828125 0.234375 -1.5625q0.234375 -0.75 0.6875 -1.296875q0.46875 -0.5625 1.125 -0.890625q0.671875 -0.328125 1.515625 -0.328125q0.8125 0 1.4375 0.265625q0.640625 0.25 1.078125 0.71875q0.4375 0.46875 0.65625 1.15625q0.21875 0.671875 0.21875 1.5zm-1.40625 -0.1875q0.015625 -0.53125 -0.109375 -0.953125q-0.125 -0.4375 -0.390625 -0.75q-0.25 -0.3125 -0.640625 -0.484375q-0.390625 -0.1875 -0.90625 -0.1875q-0.453125 0 -0.828125 0.171875q-0.359375 0.171875 -0.625 0.484375q-0.265625 0.3125 -0.4375 0.75q-0.15625 0.4375 -0.1875 0.96875l4.125 0zm10.2812195 0.46875q0 1.046875 -0.296875 1.828125q-0.28125 0.78125 -0.796875 1.296875q-0.515625 0.515625 -1.21875 0.78125q-0.703125 0.25 -1.5312195 0.25q-0.375 0 -0.75 -0.046875q-0.359375 -0.03125 -0.75 -0.125l0 3.28125l-1.359375 0l0 -11.046875l1.21875 0l0.078125 1.3125q0.59375 -0.8125 1.25 -1.125q0.6718445 -0.328125 1.4374695 -0.328125q0.671875 0 1.171875 0.28125q0.515625 0.28125 0.859375 0.796875q0.34375 0.5 0.515625 1.234375q0.171875 0.71875 0.171875 1.609375zm-1.390625 0.0625q0 -0.625 -0.09375 -1.140625q-0.078125 -0.515625 -0.28125 -0.875q-0.1875 -0.375 -0.5 -0.578125q-0.296875 -0.203125 -0.71875 -0.203125q-0.265625 0 -0.53125 0.078125q-0.265625 0.078125 -0.5468445 0.28125q-0.28125 0.1875 -0.609375 0.5q-0.3125 0.3125 -0.671875 0.78125l0 3.8125q0.375 0.15625 0.78125 0.25q0.421875 0.078125 0.8280945 0.078125q1.09375 0 1.71875 -0.734375q0.625 -0.75 0.625 -2.25zm18.828125 4.0l-6.421875 0l0 -1.265625l2.625 0l0 -7.453125l-2.4375 1.328125l-0.5 -1.15625l3.25 -1.71875l1.203125 0l0 9.0l2.28125 0l0 1.265625z" fill-rule="nonzero"/><path fill="#1155cc" d="m492.31628 163.96326l0 0c0 -4.418274 3.5816956 -8.0 8.0 -8.0l0 0c2.1217346 0 4.156555 0.84284973 5.65683 2.3431396c1.5003052 1.5002899 2.3431702 3.5351257 2.3431702 5.6568604l0 0c0 4.418274 -3.581726 8.0 -8.0 8.0l0 0c-4.4183044 0 -8.0 -3.581726 -8.0 -8.0z" fill-rule="evenodd"/><path fill="#a4c2f4" d="m736.0 79.46063l0 0c0 -4.4182816 3.581726 -8.0 8.0 -8.0l0 0c2.121704 0 4.156555 0.84284973 5.6568604 2.3431396c1.5003052 1.5002975 2.3431396 3.5351257 2.3431396 5.6568604l0 0c0 4.418274 -3.581726 8.0 -8.0 8.0l0 0c-4.418274 0 -8.0 -3.581726 -8.0 -8.0z" fill-rule="evenodd"/><path fill="#000000" fill-opacity="0.0" d="m435.81497 79.461945l300.189 0" fill-rule="evenodd"/><path stroke="#a4c2f4" stroke-width="4.0" stroke-linejoin="round" stroke-linecap="butt" d="m435.81497 79.461945l300.189 0" fill-rule="evenodd"/><path fill="#6aa84f" d="m736.0 163.96194l0 0c0 -4.418274 3.581726 -8.0 8.0 -8.0l0 0c2.121704 0 4.156555 0.84284973 5.6568604 2.3431396c1.5003052 1.5002899 2.3431396 3.5351257 2.3431396 5.6568604l0 0c0 4.418274 -3.581726 8.0 -8.0 8.0l0 0c-4.418274 0 -8.0 -3.581726 -8.0 -8.0z" fill-rule="evenodd"/><path fill="#000000" fill-opacity="0.0" d="m508.31628 163.96326l227.68506 0" fill-rule="evenodd"/><path stroke="#6aa84f" stroke-width="4.0" stroke-linejoin="round" stroke-linecap="butt" d="m508.31628 163.96326l227.68506 0" fill-rule="evenodd"/><path fill="#b6d7a8" d="m544.0 171.96326l184.0 0l0 32.0l-184.0 0z" fill-rule="evenodd"/><path stroke="#000000" stroke-width="1.0" stroke-linejoin="round" stroke-linecap="butt" d="m544.0 171.96326l184.0 0l0 32.0l-184.0 0z" fill-rule="evenodd"/><path fill="#000000" d="m569.71265 191.77388l1.6875 0.203125q-0.40625 1.484375 -1.484375 2.3125q-1.078125 0.8125 -2.765625 0.8125q-2.125 0 -3.375 -1.296875q-1.234375 -1.3125 -1.234375 -3.671875q0 -2.453125 1.25 -3.796875q1.265625 -1.34375 3.265625 -1.34375q1.9375 0 3.15625 1.328125q1.234375 1.3125 1.234375 3.703125q0 0.15625 0 0.4375l-7.21875 0q0.09375 1.59375 0.90625 2.453125q0.8125 0.84375 2.015625 0.84375q0.90625 0 1.546875 -0.46875q0.640625 -0.484375 1.015625 -1.515625zm-5.390625 -2.65625l5.40625 0q-0.109375 -1.21875 -0.625 -1.828125q-0.78125 -0.953125 -2.03125 -0.953125q-1.125 0 -1.90625 0.765625q-0.765625 0.75 -0.84375 2.015625zm11.828796 5.765625l-3.6875 -9.671875l1.734375 0l2.078125 5.796875q0.328125 0.9375 0.625 1.9375q0.203125 -0.765625 0.609375 -1.828125l2.140625 -5.90625l1.6875 0l-3.65625 9.671875l-1.53125 0zm13.265625 -3.109375l1.6875 0.203125q-0.40625 1.484375 -1.484375 2.3125q-1.078125 0.8125 -2.765625 0.8125q-2.125 0 -3.375 -1.296875q-1.234375 -1.3125 -1.234375 -3.671875q0 -2.453125 1.25 -3.796875q1.265625 -1.34375 3.265625 -1.34375q1.9375 0 3.15625 1.328125q1.234375 1.3125 1.234375 3.703125q0 0.15625 0 0.4375l-7.21875 0q0.09375 1.59375 0.90625 2.453125q0.8125 0.84375 2.015625 0.84375q0.90625 0 1.546875 -0.46875q0.640625 -0.484375 1.015625 -1.515625zm-5.390625 -2.65625l5.40625 0q-0.109375 -1.21875 -0.625 -1.828125q-0.78125 -0.953125 -2.03125 -0.953125q-1.125 0 -1.90625 0.765625q-0.765625 0.75 -0.84375 2.015625zm9.141357 5.765625l0 -9.671875l1.46875 0l0 1.375q1.0625 -1.59375 3.078125 -1.59375q0.875 0 1.609375 0.3125q0.734375 0.3125 1.09375 0.828125q0.375 0.5 0.515625 1.203125q0.09375 0.453125 0.09375 1.59375l0 5.953125l-1.640625 0l0 -5.890625q0 -1.0 -0.203125 -1.484375q-0.1875 -0.5 -0.671875 -0.796875q-0.484375 -0.296875 -1.140625 -0.296875q-1.046875 0 -1.8125 0.671875q-0.75 0.65625 -0.75 2.515625l0 5.28125l-1.640625 0zm13.953857 -1.46875l0.234375 1.453125q-0.6875 0.140625 -1.234375 0.140625q-0.890625 0 -1.390625 -0.28125q-0.484375 -0.28125 -0.6875 -0.734375q-0.203125 -0.46875 -0.203125 -1.9375l0 -5.578125l-1.203125 0l0 -1.265625l1.203125 0l0 -2.390625l1.625 -0.984375l0 3.375l1.65625 0l0 1.265625l-1.65625 0l0 5.671875q0 0.6875 0.078125 0.890625q0.09375 0.203125 0.28125 0.328125q0.203125 0.109375 0.578125 0.109375q0.265625 0 0.71875 -0.0625zm6.741577 1.46875l0 -13.359375l1.640625 0l0 13.359375l-1.640625 0zm3.5823364 -4.84375q0 -2.6875 1.484375 -3.96875q1.25 -1.078125 3.046875 -1.078125q2.0 0 3.265625 1.3125q1.265625 1.296875 1.265625 3.609375q0 1.859375 -0.5625 2.9375q-0.5625 1.0625 -1.640625 1.65625q-1.0625 0.59375 -2.328125 0.59375q-2.03125 0 -3.28125 -1.296875q-1.25 -1.3125 -1.25 -3.765625zm1.6875 0q0 1.859375 0.796875 2.796875q0.8125 0.921875 2.046875 0.921875q1.21875 0 2.03125 -0.921875q0.8125 -0.9375 0.8125 -2.84375q0 -1.796875 -0.8125 -2.71875q-0.8125 -0.921875 -2.03125 -0.921875q-1.234375 0 -2.046875 0.921875q-0.796875 0.90625 -0.796875 2.765625zm8.688232 0q0 -2.6875 1.484375 -3.96875q1.25 -1.078125 3.046875 -1.078125q2.0 0 3.265625 1.3125q1.265625 1.296875 1.265625 3.609375q0 1.859375 -0.5625 2.9375q-0.5625 1.0625 -1.640625 1.65625q-1.0625 0.59375 -2.328125 0.59375q-2.03125 0 -3.28125 -1.296875q-1.25 -1.3125 -1.25 -3.765625zm1.6875 0q0 1.859375 0.796875 2.796875q0.8125 0.921875 2.046875 0.921875q1.21875 0 2.03125 -0.921875q0.8125 -0.9375 0.8125 -2.84375q0 -1.796875 -0.8125 -2.71875q-0.8125 -0.921875 -2.03125 -0.921875q-1.234375 0 -2.046875 0.921875q-0.796875 0.90625 -0.796875 2.765625zm9.297607 8.546875l0 -13.375l1.484375 0l0 1.25q0.53125 -0.734375 1.1875 -1.09375q0.671875 -0.375 1.625 -0.375q1.234375 0 2.171875 0.640625q0.953125 0.625 1.4375 1.796875q0.484375 1.15625 0.484375 2.546875q0 1.484375 -0.53125 2.671875q-0.53125 1.1875 -1.546875 1.828125q-1.015625 0.625 -2.140625 0.625q-0.8125 0 -1.46875 -0.34375q-0.65625 -0.34375 -1.0625 -0.875l0 4.703125l-1.640625 0zm1.484375 -8.484375q0 1.859375 0.75 2.765625q0.765625 0.890625 1.828125 0.890625q1.09375 0 1.875 -0.921875q0.78125 -0.9375 0.78125 -2.875q0 -1.84375 -0.765625 -2.765625q-0.75 -0.921875 -1.8125 -0.921875q-1.046875 0 -1.859375 0.984375q-0.796875 0.96875 -0.796875 2.84375zm17.199646 8.703125q-1.359375 -1.703125 -2.296875 -4.0q-0.9375 -2.296875 -0.9375 -4.765625q0 -2.15625 0.703125 -4.140625q0.828125 -2.3125 2.53125 -4.59375l1.171875 0q-1.09375 1.890625 -1.453125 2.703125q-0.546875 1.25 -0.875 2.625q-0.390625 1.703125 -0.390625 3.421875q0 4.375 2.71875 8.75l-1.171875 0zm8.8063965 -3.921875l-1.640625 0l0 -10.453125q-0.59375 0.5625 -1.5625 1.140625q-0.953125 0.5625 -1.71875 0.84375l0 -1.59375q1.375 -0.640625 2.40625 -1.5625q1.03125 -0.921875 1.453125 -1.78125l1.0625 0l0 13.40625zm9.184021 -2.890625l1.625 -0.25q0.125 0.96875 0.75 1.5q0.625 0.515625 1.75 0.515625q1.125 0 1.671875 -0.453125q0.546875 -0.46875 0.546875 -1.09375q0 -0.546875 -0.484375 -0.875q-0.328125 -0.21875 -1.671875 -0.546875q-1.8125 -0.46875 -2.515625 -0.796875q-0.6875 -0.328125 -1.046875 -0.90625q-0.359375 -0.59375 -0.359375 -1.3125q0 -0.640625 0.296875 -1.1875q0.296875 -0.5625 0.8125 -0.921875q0.375 -0.28125 1.03125 -0.46875q0.671875 -0.203125 1.421875 -0.203125q1.140625 0 2.0 0.328125q0.859375 0.328125 1.265625 0.890625q0.421875 0.5625 0.578125 1.5l-1.609375 0.21875q-0.109375 -0.75 -0.640625 -1.171875q-0.515625 -0.421875 -1.46875 -0.421875q-1.140625 0 -1.625 0.375q-0.46875 0.375 -0.46875 0.875q0 0.3125 0.1875 0.578125q0.203125 0.265625 0.640625 0.4375q0.234375 0.09375 1.4375 0.421875q1.75 0.453125 2.4375 0.75q0.6875 0.296875 1.078125 0.859375q0.390625 0.5625 0.390625 1.40625q0 0.828125 -0.484375 1.546875q-0.46875 0.71875 -1.375 1.125q-0.90625 0.390625 -2.046875 0.390625q-1.875 0 -2.875 -0.78125q-0.984375 -0.78125 -1.25 -2.328125zm16.609375 -0.21875l1.6875 0.203125q-0.40625 1.484375 -1.484375 2.3125q-1.078125 0.8125 -2.765625 0.8125q-2.125 0 -3.375 -1.296875q-1.234375 -1.3125 -1.234375 -3.671875q0 -2.453125 1.25 -3.796875q1.265625 -1.34375 3.265625 -1.34375q1.9375 0 3.15625 1.328125q1.234375 1.3125 1.234375 3.703125q0 0.15625 0 0.4375l-7.21875 0q0.09375 1.59375 0.90625 2.453125q0.8125 0.84375 2.015625 0.84375q0.90625 0 1.546875 -0.46875q0.640625 -0.484375 1.015625 -1.515625zm-5.390625 -2.65625l5.40625 0q-0.109375 -1.21875 -0.625 -1.828125q-0.78125 -0.953125 -2.03125 -0.953125q-1.125 0 -1.90625 0.765625q-0.765625 0.75 -0.84375 2.015625zm15.453857 2.21875l1.609375 0.21875q-0.265625 1.65625 -1.359375 2.609375q-1.078125 0.9375 -2.671875 0.9375q-1.984375 0 -3.1875 -1.296875q-1.203125 -1.296875 -1.203125 -3.71875q0 -1.578125 0.515625 -2.75q0.515625 -1.171875 1.578125 -1.75q1.0625 -0.59375 2.3125 -0.59375q1.578125 0 2.578125 0.796875q1.0 0.796875 1.28125 2.265625l-1.59375 0.234375q-0.234375 -0.96875 -0.8125 -1.453125q-0.578125 -0.5 -1.390625 -0.5q-1.234375 0 -2.015625 0.890625q-0.78125 0.890625 -0.78125 2.8125q0 1.953125 0.75 2.84375q0.75 0.875 1.953125 0.875q0.96875 0 1.609375 -0.59375q0.65625 -0.59375 0.828125 -1.828125zm4.09375 7.46875l-1.1875 0q2.734375 -4.375 2.734375 -8.75q0 -1.71875 -0.390625 -3.390625q-0.3125 -1.375 -0.875 -2.625q-0.359375 -0.828125 -1.46875 -2.734375l1.1875 0q1.703125 2.28125 2.53125 4.59375q0.6875 1.984375 0.6875 4.140625q0 2.46875 -0.9375 4.765625q-0.9375 2.296875 -2.28125 4.0z" fill-rule="nonzero"/><path fill="#000000" fill-opacity="0.0" d="m744.0 155.96194l0 -68.50394" fill-rule="evenodd"/><path stroke="#6d9eeb" stroke-width="4.0" stroke-linejoin="round" stroke-linecap="butt" d="m744.0 155.96194l0 -44.503937" fill-rule="evenodd"/><path fill="#6d9eeb" stroke="#6d9eeb" stroke-width="4.0" stroke-linecap="butt" d="m750.60693 111.45801l-6.6069336 -18.152397l-6.6069336 18.152397z" fill-rule="evenodd"/><path fill="#000000" fill-opacity="0.0" d="m752.0 79.46063l56.0 0.5354309" fill-rule="evenodd"/><path stroke="#1155cc" stroke-width="4.0" stroke-linejoin="round" stroke-linecap="butt" d="m752.0 79.46063l56.0 0.5354309" fill-rule="evenodd"/><path fill="#1155cc" d="m808.0 72.0l8.0 0l0 16.0l-8.0 0z" fill-rule="evenodd"/><path fill="#f3f3f3" d="m760.4724 24.0l103.52759 0l0 40.0l-103.52759 0z" fill-rule="evenodd"/><path stroke="#b7b7b7" stroke-width="1.0" stroke-linejoin="round" stroke-linecap="butt" d="m760.4724 24.0l103.52759 0l0 40.0l-103.52759 0z" fill-rule="evenodd"/><path fill="#000000" d="m780.2284 48.250626q-0.46875 0.125 -0.96875 0.171875q-0.484375 0.046875 -0.984375 0.046875q-1.484375 0 -2.21875 -0.671875q-0.71875 -0.671875 -0.71875 -2.046875l0 -4.09375l-2.1875 0l0 -1.140625l2.1875 0l0 -2.15625l1.359375 -0.359375l0 2.515625l3.53125 0l0 1.140625l-3.53125 0l0 3.984375q0 0.84375 0.453125 1.265625q0.453125 0.40625 1.328125 0.40625q0.375 0 0.8125 -0.046875q0.453125 -0.0625 0.9375 -0.1875l0 1.171875zm9.09375 -4.234375q0 0.296875 -0.015625 0.5q0 0.1875 -0.015625 0.359375l-5.5 0q0 1.203125 0.671875 1.84375q0.671875 0.640625 1.9375 0.640625q0.34375 0 0.6875 -0.015625q0.34375 -0.03125 0.65625 -0.078125q0.328125 -0.046875 0.609375 -0.109375q0.296875 -0.0625 0.546875 -0.125l0 1.109375q-0.546875 0.15625 -1.25 0.25q-0.703125 0.109375 -1.453125 0.109375q-1.0 0 -1.734375 -0.265625q-0.71875 -0.28125 -1.1875 -0.796875q-0.46875 -0.53125 -0.6875 -1.28125q-0.21875 -0.75 -0.21875 -1.703125q0 -0.828125 0.234375 -1.5625q0.234375 -0.75 0.6875 -1.296875q0.46875 -0.5625 1.125 -0.890625q0.671875 -0.328125 1.515625 -0.328125q0.8125 0 1.4375 0.265625q0.640625 0.25 1.078125 0.71875q0.4375 0.46875 0.65625 1.15625q0.21875 0.671875 0.21875 1.5zm-1.40625 -0.1875q0.015625 -0.53125 -0.109375 -0.953125q-0.125 -0.4375 -0.390625 -0.75q-0.25 -0.3125 -0.640625 -0.484375q-0.390625 -0.1875 -0.90625 -0.1875q-0.453125 0 -0.828125 0.171875q-0.359375 0.171875 -0.625 0.484375q-0.265625 0.3125 -0.4375 0.75q-0.15625 0.4375 -0.1875 0.96875l4.125 0zm3.90625 -3.3125l1.234375 0l0.046875 1.4375q0.6875 -0.828125 1.359375 -1.203125q0.6875 -0.375 1.375 -0.375q1.21875 0 1.84375 0.796875q0.625 0.78125 0.578125 2.328125l-1.375 0q0.03125 -1.03125 -0.296875 -1.484375q-0.328125 -0.46875 -0.953125 -0.46875q-0.265625 0 -0.546875 0.09375q-0.28125 0.09375 -0.578125 0.3125q-0.28125 0.21875 -0.609375 0.5625q-0.328125 0.328125 -0.703125 0.796875l0 5.046875l-1.375 0l0 -7.84375zm14.0625 7.84375l0 -5.640625q0 -0.359375 -0.03125 -0.59375q-0.015625 -0.234375 -0.078125 -0.375q-0.0625 -0.140625 -0.15625 -0.1875q-0.078125 -0.0625 -0.21875 -0.0625q-0.15625 0 -0.296875 0.09375q-0.125 0.09375 -0.28125 0.3125q-0.140625 0.203125 -0.328125 0.5625q-0.1875 0.34375 -0.4375 0.84375l0 5.046875l-1.234375 0l0 -5.484375q0 -0.4375 -0.03125 -0.703125q-0.03125 -0.265625 -0.09375 -0.40625q-0.046875 -0.15625 -0.140625 -0.203125q-0.09375 -0.0625 -0.234375 -0.0625q-0.140625 0 -0.265625 0.078125q-0.125 0.078125 -0.28125 0.28125q-0.140625 0.203125 -0.328125 0.5625q-0.1875 0.34375 -0.453125 0.890625l0 5.046875l-1.25 0l0 -7.84375l1.046875 0l0.0625 1.484375q0.203125 -0.4375 0.390625 -0.75q0.1875 -0.3125 0.390625 -0.5q0.203125 -0.203125 0.4375 -0.28125q0.234375 -0.09375 0.515625 -0.09375q0.625 0 0.953125 0.421875q0.328125 0.40625 0.328125 1.265625q0.1875 -0.40625 0.359375 -0.71875q0.1875 -0.3125 0.390625 -0.53125q0.21875 -0.21875 0.46875 -0.328125q0.25 -0.109375 0.578125 -0.109375q1.46875 0 1.46875 2.265625l0 5.71875l-1.25 0zm5.875 -6.71875l-2.3125 0l0 -1.125l3.6875 0l0 6.703125l2.34375 0l0 1.140625l-6.296875 0l0 -1.140625l2.578125 0l0 -5.578125zm0.484375 -4.421875q0.21875 0 0.40625 0.09375q0.203125 0.078125 0.34375 0.234375q0.15625 0.140625 0.234375 0.328125q0.078125 0.1875 0.078125 0.421875q0 0.21875 -0.078125 0.421875q-0.078125 0.1875 -0.234375 0.34375q-0.140625 0.140625 -0.34375 0.21875q-0.1875 0.078125 -0.40625 0.078125q-0.234375 0 -0.4375 -0.078125q-0.1875 -0.078125 -0.328125 -0.21875q-0.140625 -0.15625 -0.234375 -0.34375q-0.078125 -0.203125 -0.078125 -0.421875q0 -0.234375 0.078125 -0.421875q0.09375 -0.1875 0.234375 -0.328125q0.140625 -0.15625 0.328125 -0.234375q0.203125 -0.09375 0.4375 -0.09375zm5.640625 3.296875l1.21875 0l0.046875 1.265625q0.34375 -0.40625 0.65625 -0.671875q0.328125 -0.28125 0.640625 -0.4375q0.3125 -0.171875 0.625 -0.234375q0.328125 -0.0625 0.671875 -0.0625q1.203125 0 1.828125 0.71875q0.625 0.703125 0.625 2.140625l0 5.125l-1.359375 0l0 -5.015625q0 -0.921875 -0.34375 -1.359375q-0.34375 -0.4375 -1.03125 -0.4375q-0.25 0 -0.484375 0.078125q-0.234375 0.0625 -0.5 0.25q-0.25 0.1875 -0.5625 0.5q-0.296875 0.3125 -0.671875 0.78125l0 5.203125l-1.359375 0l0 -7.84375zm13.84375 7.84375l-0.03125 -1.0625q-0.640625 0.640625 -1.3125 0.921875q-0.65625 0.28125 -1.375 0.28125q-0.671875 0 -1.15625 -0.171875q-0.46875 -0.171875 -0.78125 -0.46875q-0.3125 -0.3125 -0.453125 -0.71875q-0.140625 -0.40625 -0.140625 -0.875q0 -1.1875 0.875 -1.84375q0.875 -0.671875 2.59375 -0.671875l1.625 0l0 -0.6875q0 -0.703125 -0.453125 -1.109375q-0.4375 -0.421875 -1.34375 -0.421875q-0.671875 0 -1.3125 0.15625q-0.640625 0.140625 -1.328125 0.40625l0 -1.21875q0.25 -0.09375 0.5625 -0.1875q0.328125 -0.09375 0.671875 -0.15625q0.359375 -0.078125 0.734375 -0.109375q0.390625 -0.046875 0.78125 -0.046875q0.703125 0 1.265625 0.15625q0.578125 0.15625 0.96875 0.484375q0.40625 0.3125 0.609375 0.796875q0.21875 0.484375 0.21875 1.140625l0 5.40625l-1.21875 0zm-0.15625 -3.578125l-1.71875 0q-0.515625 0 -0.890625 0.109375q-0.359375 0.09375 -0.59375 0.28125q-0.234375 0.1875 -0.34375 0.453125q-0.109375 0.265625 -0.109375 0.59375q0 0.21875 0.0625 0.4375q0.078125 0.203125 0.234375 0.359375q0.15625 0.15625 0.40625 0.25q0.25 0.09375 0.609375 0.09375q0.46875 0 1.0625 -0.28125q0.609375 -0.28125 1.28125 -0.90625l0 -1.390625zm10.234375 3.46875q-0.46875 0.125 -0.96875 0.171875q-0.484375 0.046875 -0.984375 0.046875q-1.484375 0 -2.21875 -0.671875q-0.71875 -0.671875 -0.71875 -2.046875l0 -4.09375l-2.1875 0l0 -1.140625l2.1875 0l0 -2.15625l1.359375 -0.359375l0 2.515625l3.53125 0l0 1.140625l-3.53125 0l0 3.984375q0 0.84375 0.453125 1.265625q0.453125 0.40625 1.328125 0.40625q0.375 0 0.8125 -0.046875q0.453125 -0.0625 0.9375 -0.1875l0 1.171875zm9.09375 -4.234375q0 0.296875 -0.015625 0.5q0 0.1875 -0.015625 0.359375l-5.5 0q0 1.203125 0.671875 1.84375q0.671875 0.640625 1.9375 0.640625q0.34375 0 0.6875 -0.015625q0.34375 -0.03125 0.65625 -0.078125q0.328125 -0.046875 0.609375 -0.109375q0.296875 -0.0625 0.546875 -0.125l0 1.109375q-0.546875 0.15625 -1.25 0.25q-0.703125 0.109375 -1.453125 0.109375q-1.0 0 -1.734375 -0.265625q-0.71875 -0.28125 -1.1875 -0.796875q-0.46875 -0.53125 -0.6875 -1.28125q-0.21875 -0.75 -0.21875 -1.703125q0 -0.828125 0.234375 -1.5625q0.234375 -0.75 0.6875 -1.296875q0.46875 -0.5625 1.125 -0.890625q0.671875 -0.328125 1.515625 -0.328125q0.8125 0 1.4375 0.265625q0.640625 0.25 1.078125 0.71875q0.4375 0.46875 0.65625 1.15625q0.21875 0.671875 0.21875 1.5zm-1.40625 -0.1875q0.015625 -0.53125 -0.109375 -0.953125q-0.125 -0.4375 -0.390625 -0.75q-0.25 -0.3125 -0.640625 -0.484375q-0.390625 -0.1875 -0.90625 -0.1875q-0.453125 0 -0.828125 0.171875q-0.359375 0.171875 -0.625 0.484375q-0.265625 0.3125 -0.4375 0.75q-0.15625 0.4375 -0.1875 0.96875l4.125 0z" fill-rule="nonzero"/></g></svg>